<svg xmlns="http://www.w3.org/2000/svg" enable-background="new 0 0 64 64" viewBox="0 0 64 64"><g transform="translate(30 432)"><path fill="#134563" d="M2-379.3c-11.4 0-20.7-9.3-20.7-20.7 0-5 1.8-9.9 5.2-13.7l2.2 2c-2.9 3.2-4.4 7.4-4.4 11.7 0 9.8 7.9 17.7 17.7 17.7 2.6 0 5.1-.5 7.4-1.6l1.2 2.7C7.9-379.9 5-379.3 2-379.3M17.4-386.2l-2.2-2c2.9-3.2 4.5-7.4 4.5-11.8 0-9.8-7.9-17.7-17.7-17.7-2.6 0-5.1.5-7.4 1.6l-1.2-2.7c2.7-1.2 5.6-1.9 8.6-1.9 11.4 0 20.7 9.3 20.7 20.7C22.7-394.9 20.8-390 17.4-386.2"/><polyline fill="#134563" points="-9.2 -401.6 -12.4 -401.6 -12.4 -411.2 -22 -411.2 -22 -414.4 -9.2 -414.4 -9.2 -401.6"/><polyline fill="#134563" points="26 -385.6 13.2 -385.6 13.2 -398.4 16.4 -398.4 16.4 -388.8 26 -388.8 26 -385.6"/></g></svg>